<mxfile host="app.diagrams.net" modified="2022-08-03T13:33:29.844Z" agent="5.0 (Windows NT 10.0; Win64; x64) AppleWebKit/537.36 (KHTML, like Gecko) Chrome/103.0.0.0 Safari/537.36" etag="2uCkhKWG6IaaeDkiC03g" version="20.2.1" type="github">
  <diagram id="C5RBs43oDa-KdzZeNtuy" name="Page-1">
    <mxGraphModel dx="2012" dy="635" grid="1" gridSize="10" guides="1" tooltips="1" connect="1" arrows="1" fold="1" page="1" pageScale="1" pageWidth="827" pageHeight="1169" math="0" shadow="0">
      <root>
        <mxCell id="WIyWlLk6GJQsqaUBKTNV-0" />
        <mxCell id="WIyWlLk6GJQsqaUBKTNV-1" parent="WIyWlLk6GJQsqaUBKTNV-0" />
        <mxCell id="Dr2MwS-Cp9HYmhvvcvBp-58" style="edgeStyle=orthogonalEdgeStyle;rounded=0;orthogonalLoop=1;jettySize=auto;html=1;exitX=1;exitY=0.5;exitDx=0;exitDy=0;entryX=0;entryY=0.5;entryDx=0;entryDy=0;" edge="1" parent="WIyWlLk6GJQsqaUBKTNV-1" source="Dr2MwS-Cp9HYmhvvcvBp-0" target="Dr2MwS-Cp9HYmhvvcvBp-2">
          <mxGeometry relative="1" as="geometry" />
        </mxCell>
        <mxCell id="Dr2MwS-Cp9HYmhvvcvBp-59" style="edgeStyle=orthogonalEdgeStyle;rounded=0;orthogonalLoop=1;jettySize=auto;html=1;exitX=0.5;exitY=0;exitDx=0;exitDy=0;entryX=0.5;entryY=1;entryDx=0;entryDy=0;" edge="1" parent="WIyWlLk6GJQsqaUBKTNV-1" source="Dr2MwS-Cp9HYmhvvcvBp-0" target="Dr2MwS-Cp9HYmhvvcvBp-1">
          <mxGeometry relative="1" as="geometry" />
        </mxCell>
        <mxCell id="Dr2MwS-Cp9HYmhvvcvBp-0" value="盘点方案" style="whiteSpace=wrap;html=1;aspect=fixed;" vertex="1" parent="WIyWlLk6GJQsqaUBKTNV-1">
          <mxGeometry x="480" y="430" width="80" height="80" as="geometry" />
        </mxCell>
        <mxCell id="Dr2MwS-Cp9HYmhvvcvBp-48" style="edgeStyle=orthogonalEdgeStyle;rounded=0;orthogonalLoop=1;jettySize=auto;html=1;exitX=1;exitY=0.5;exitDx=0;exitDy=0;entryX=0;entryY=0.5;entryDx=0;entryDy=0;" edge="1" parent="WIyWlLk6GJQsqaUBKTNV-1" source="Dr2MwS-Cp9HYmhvvcvBp-1" target="Dr2MwS-Cp9HYmhvvcvBp-2">
          <mxGeometry relative="1" as="geometry" />
        </mxCell>
        <mxCell id="Dr2MwS-Cp9HYmhvvcvBp-1" value="测评数据" style="whiteSpace=wrap;html=1;aspect=fixed;" vertex="1" parent="WIyWlLk6GJQsqaUBKTNV-1">
          <mxGeometry x="480" y="310" width="80" height="80" as="geometry" />
        </mxCell>
        <mxCell id="Dr2MwS-Cp9HYmhvvcvBp-2" value="盘点结果" style="whiteSpace=wrap;html=1;aspect=fixed;" vertex="1" parent="WIyWlLk6GJQsqaUBKTNV-1">
          <mxGeometry x="680" y="310" width="80" height="80" as="geometry" />
        </mxCell>
        <mxCell id="Dr2MwS-Cp9HYmhvvcvBp-47" style="edgeStyle=orthogonalEdgeStyle;rounded=0;orthogonalLoop=1;jettySize=auto;html=1;exitX=1;exitY=0.5;exitDx=0;exitDy=0;entryX=0;entryY=0.5;entryDx=0;entryDy=0;" edge="1" parent="WIyWlLk6GJQsqaUBKTNV-1" source="Dr2MwS-Cp9HYmhvvcvBp-3" target="Dr2MwS-Cp9HYmhvvcvBp-0">
          <mxGeometry relative="1" as="geometry" />
        </mxCell>
        <mxCell id="Dr2MwS-Cp9HYmhvvcvBp-3" value="盘点工具包" style="whiteSpace=wrap;html=1;aspect=fixed;" vertex="1" parent="WIyWlLk6GJQsqaUBKTNV-1">
          <mxGeometry x="334" y="430" width="80" height="80" as="geometry" />
        </mxCell>
        <mxCell id="Dr2MwS-Cp9HYmhvvcvBp-45" style="edgeStyle=orthogonalEdgeStyle;rounded=0;orthogonalLoop=1;jettySize=auto;html=1;exitX=0.5;exitY=1;exitDx=0;exitDy=0;entryX=0.5;entryY=0;entryDx=0;entryDy=0;" edge="1" parent="WIyWlLk6GJQsqaUBKTNV-1" source="Dr2MwS-Cp9HYmhvvcvBp-4" target="Dr2MwS-Cp9HYmhvvcvBp-11">
          <mxGeometry relative="1" as="geometry" />
        </mxCell>
        <mxCell id="Dr2MwS-Cp9HYmhvvcvBp-4" value="宫格图" style="whiteSpace=wrap;html=1;aspect=fixed;" vertex="1" parent="WIyWlLk6GJQsqaUBKTNV-1">
          <mxGeometry x="160" y="320" width="80" height="80" as="geometry" />
        </mxCell>
        <mxCell id="Dr2MwS-Cp9HYmhvvcvBp-43" style="edgeStyle=orthogonalEdgeStyle;rounded=0;orthogonalLoop=1;jettySize=auto;html=1;exitX=1;exitY=0.5;exitDx=0;exitDy=0;entryX=0;entryY=0.5;entryDx=0;entryDy=0;" edge="1" parent="WIyWlLk6GJQsqaUBKTNV-1" source="Dr2MwS-Cp9HYmhvvcvBp-5" target="Dr2MwS-Cp9HYmhvvcvBp-11">
          <mxGeometry relative="1" as="geometry" />
        </mxCell>
        <mxCell id="Dr2MwS-Cp9HYmhvvcvBp-5" value="Y轴（绩效）" style="whiteSpace=wrap;html=1;aspect=fixed;" vertex="1" parent="WIyWlLk6GJQsqaUBKTNV-1">
          <mxGeometry x="40" y="430" width="80" height="80" as="geometry" />
        </mxCell>
        <mxCell id="Dr2MwS-Cp9HYmhvvcvBp-44" style="edgeStyle=orthogonalEdgeStyle;rounded=0;orthogonalLoop=1;jettySize=auto;html=1;exitX=1;exitY=0.5;exitDx=0;exitDy=0;entryX=0.5;entryY=1;entryDx=0;entryDy=0;" edge="1" parent="WIyWlLk6GJQsqaUBKTNV-1" source="Dr2MwS-Cp9HYmhvvcvBp-6" target="Dr2MwS-Cp9HYmhvvcvBp-11">
          <mxGeometry relative="1" as="geometry" />
        </mxCell>
        <mxCell id="Dr2MwS-Cp9HYmhvvcvBp-6" value="X轴（潜力）" style="whiteSpace=wrap;html=1;aspect=fixed;" vertex="1" parent="WIyWlLk6GJQsqaUBKTNV-1">
          <mxGeometry x="40" y="554.5" width="80" height="80" as="geometry" />
        </mxCell>
        <mxCell id="Dr2MwS-Cp9HYmhvvcvBp-41" style="edgeStyle=orthogonalEdgeStyle;rounded=0;orthogonalLoop=1;jettySize=auto;html=1;exitX=1;exitY=0.5;exitDx=0;exitDy=0;" edge="1" parent="WIyWlLk6GJQsqaUBKTNV-1" source="Dr2MwS-Cp9HYmhvvcvBp-8" target="Dr2MwS-Cp9HYmhvvcvBp-6">
          <mxGeometry relative="1" as="geometry">
            <mxPoint x="-79.99999999999977" y="595" as="targetPoint" />
          </mxGeometry>
        </mxCell>
        <mxCell id="Dr2MwS-Cp9HYmhvvcvBp-8" value="测评工具" style="whiteSpace=wrap;html=1;aspect=fixed;" vertex="1" parent="WIyWlLk6GJQsqaUBKTNV-1">
          <mxGeometry x="-100" y="554.5" width="80" height="80" as="geometry" />
        </mxCell>
        <mxCell id="Dr2MwS-Cp9HYmhvvcvBp-24" style="edgeStyle=orthogonalEdgeStyle;rounded=0;orthogonalLoop=1;jettySize=auto;html=1;entryX=0.5;entryY=1;entryDx=0;entryDy=0;exitX=0.5;exitY=1;exitDx=0;exitDy=0;" edge="1" parent="WIyWlLk6GJQsqaUBKTNV-1" source="Dr2MwS-Cp9HYmhvvcvBp-10" target="Dr2MwS-Cp9HYmhvvcvBp-16">
          <mxGeometry relative="1" as="geometry">
            <Array as="points">
              <mxPoint x="-220" y="1000" />
              <mxPoint x="120" y="1000" />
            </Array>
          </mxGeometry>
        </mxCell>
        <mxCell id="Dr2MwS-Cp9HYmhvvcvBp-40" style="edgeStyle=orthogonalEdgeStyle;rounded=0;orthogonalLoop=1;jettySize=auto;html=1;exitX=1;exitY=0.5;exitDx=0;exitDy=0;entryX=0;entryY=0.5;entryDx=0;entryDy=0;" edge="1" parent="WIyWlLk6GJQsqaUBKTNV-1" source="Dr2MwS-Cp9HYmhvvcvBp-10" target="Dr2MwS-Cp9HYmhvvcvBp-8">
          <mxGeometry relative="1" as="geometry" />
        </mxCell>
        <mxCell id="Dr2MwS-Cp9HYmhvvcvBp-10" value="能力项" style="whiteSpace=wrap;html=1;aspect=fixed;" vertex="1" parent="WIyWlLk6GJQsqaUBKTNV-1">
          <mxGeometry x="-260" y="554.5" width="80" height="80" as="geometry" />
        </mxCell>
        <mxCell id="Dr2MwS-Cp9HYmhvvcvBp-46" style="edgeStyle=orthogonalEdgeStyle;rounded=0;orthogonalLoop=1;jettySize=auto;html=1;exitX=1;exitY=0.5;exitDx=0;exitDy=0;entryX=0;entryY=0.5;entryDx=0;entryDy=0;" edge="1" parent="WIyWlLk6GJQsqaUBKTNV-1" source="Dr2MwS-Cp9HYmhvvcvBp-11" target="Dr2MwS-Cp9HYmhvvcvBp-3">
          <mxGeometry relative="1" as="geometry" />
        </mxCell>
        <mxCell id="Dr2MwS-Cp9HYmhvvcvBp-11" value="匹配规则" style="whiteSpace=wrap;html=1;aspect=fixed;" vertex="1" parent="WIyWlLk6GJQsqaUBKTNV-1">
          <mxGeometry x="160" y="430" width="80" height="80" as="geometry" />
        </mxCell>
        <mxCell id="Dr2MwS-Cp9HYmhvvcvBp-12" value="任职资格" style="whiteSpace=wrap;html=1;aspect=fixed;" vertex="1" parent="WIyWlLk6GJQsqaUBKTNV-1">
          <mxGeometry x="670" y="820" width="80" height="80" as="geometry" />
        </mxCell>
        <mxCell id="Dr2MwS-Cp9HYmhvvcvBp-39" style="edgeStyle=orthogonalEdgeStyle;rounded=0;orthogonalLoop=1;jettySize=auto;html=1;exitX=1;exitY=0.5;exitDx=0;exitDy=0;entryX=0;entryY=0.5;entryDx=0;entryDy=0;" edge="1" parent="WIyWlLk6GJQsqaUBKTNV-1" source="Dr2MwS-Cp9HYmhvvcvBp-13" target="Dr2MwS-Cp9HYmhvvcvBp-12">
          <mxGeometry relative="1" as="geometry" />
        </mxCell>
        <mxCell id="Dr2MwS-Cp9HYmhvvcvBp-13" value="胜任力模型" style="whiteSpace=wrap;html=1;aspect=fixed;" vertex="1" parent="WIyWlLk6GJQsqaUBKTNV-1">
          <mxGeometry x="500" y="820" width="80" height="80" as="geometry" />
        </mxCell>
        <mxCell id="Dr2MwS-Cp9HYmhvvcvBp-30" style="edgeStyle=orthogonalEdgeStyle;rounded=0;orthogonalLoop=1;jettySize=auto;html=1;exitX=0.5;exitY=0;exitDx=0;exitDy=0;entryX=0.5;entryY=0;entryDx=0;entryDy=0;" edge="1" parent="WIyWlLk6GJQsqaUBKTNV-1" source="Dr2MwS-Cp9HYmhvvcvBp-14" target="Dr2MwS-Cp9HYmhvvcvBp-13">
          <mxGeometry relative="1" as="geometry" />
        </mxCell>
        <mxCell id="Dr2MwS-Cp9HYmhvvcvBp-14" value="职群职种" style="whiteSpace=wrap;html=1;aspect=fixed;" vertex="1" parent="WIyWlLk6GJQsqaUBKTNV-1">
          <mxGeometry x="10" y="750" width="80" height="80" as="geometry" />
        </mxCell>
        <mxCell id="Dr2MwS-Cp9HYmhvvcvBp-38" style="edgeStyle=orthogonalEdgeStyle;rounded=0;orthogonalLoop=1;jettySize=auto;html=1;exitX=0.5;exitY=1;exitDx=0;exitDy=0;entryX=0;entryY=1;entryDx=0;entryDy=0;" edge="1" parent="WIyWlLk6GJQsqaUBKTNV-1" source="Dr2MwS-Cp9HYmhvvcvBp-15" target="Dr2MwS-Cp9HYmhvvcvBp-13">
          <mxGeometry relative="1" as="geometry" />
        </mxCell>
        <mxCell id="Dr2MwS-Cp9HYmhvvcvBp-15" value="基本要求" style="whiteSpace=wrap;html=1;aspect=fixed;" vertex="1" parent="WIyWlLk6GJQsqaUBKTNV-1">
          <mxGeometry x="-40" y="900" width="80" height="80" as="geometry" />
        </mxCell>
        <mxCell id="Dr2MwS-Cp9HYmhvvcvBp-37" style="edgeStyle=orthogonalEdgeStyle;rounded=0;orthogonalLoop=1;jettySize=auto;html=1;exitX=0.75;exitY=1;exitDx=0;exitDy=0;entryX=0.25;entryY=1;entryDx=0;entryDy=0;" edge="1" parent="WIyWlLk6GJQsqaUBKTNV-1" source="Dr2MwS-Cp9HYmhvvcvBp-16" target="Dr2MwS-Cp9HYmhvvcvBp-13">
          <mxGeometry relative="1" as="geometry" />
        </mxCell>
        <mxCell id="Dr2MwS-Cp9HYmhvvcvBp-16" value="能力要求" style="whiteSpace=wrap;html=1;aspect=fixed;" vertex="1" parent="WIyWlLk6GJQsqaUBKTNV-1">
          <mxGeometry x="80" y="900" width="80" height="80" as="geometry" />
        </mxCell>
        <mxCell id="Dr2MwS-Cp9HYmhvvcvBp-36" style="edgeStyle=orthogonalEdgeStyle;rounded=0;orthogonalLoop=1;jettySize=auto;html=1;exitX=0.5;exitY=1;exitDx=0;exitDy=0;entryX=1;entryY=1;entryDx=0;entryDy=0;" edge="1" parent="WIyWlLk6GJQsqaUBKTNV-1" source="Dr2MwS-Cp9HYmhvvcvBp-17" target="Dr2MwS-Cp9HYmhvvcvBp-13">
          <mxGeometry relative="1" as="geometry" />
        </mxCell>
        <mxCell id="Dr2MwS-Cp9HYmhvvcvBp-17" value="标签要求" style="whiteSpace=wrap;html=1;aspect=fixed;" vertex="1" parent="WIyWlLk6GJQsqaUBKTNV-1">
          <mxGeometry x="190" y="900" width="80" height="80" as="geometry" />
        </mxCell>
        <mxCell id="Dr2MwS-Cp9HYmhvvcvBp-33" style="edgeStyle=orthogonalEdgeStyle;rounded=0;orthogonalLoop=1;jettySize=auto;html=1;exitX=0.5;exitY=1;exitDx=0;exitDy=0;entryX=0.5;entryY=1;entryDx=0;entryDy=0;" edge="1" parent="WIyWlLk6GJQsqaUBKTNV-1" source="Dr2MwS-Cp9HYmhvvcvBp-18" target="Dr2MwS-Cp9HYmhvvcvBp-13">
          <mxGeometry relative="1" as="geometry" />
        </mxCell>
        <mxCell id="Dr2MwS-Cp9HYmhvvcvBp-18" value="文化价值观" style="whiteSpace=wrap;html=1;aspect=fixed;" vertex="1" parent="WIyWlLk6GJQsqaUBKTNV-1">
          <mxGeometry x="400" y="900" width="80" height="80" as="geometry" />
        </mxCell>
        <mxCell id="Dr2MwS-Cp9HYmhvvcvBp-35" style="edgeStyle=orthogonalEdgeStyle;rounded=0;orthogonalLoop=1;jettySize=auto;html=1;exitX=0.5;exitY=1;exitDx=0;exitDy=0;entryX=0.75;entryY=1;entryDx=0;entryDy=0;" edge="1" parent="WIyWlLk6GJQsqaUBKTNV-1" source="Dr2MwS-Cp9HYmhvvcvBp-19" target="Dr2MwS-Cp9HYmhvvcvBp-13">
          <mxGeometry relative="1" as="geometry" />
        </mxCell>
        <mxCell id="Dr2MwS-Cp9HYmhvvcvBp-19" value="轮岗要求" style="whiteSpace=wrap;html=1;aspect=fixed;" vertex="1" parent="WIyWlLk6GJQsqaUBKTNV-1">
          <mxGeometry x="290" y="900" width="80" height="80" as="geometry" />
        </mxCell>
        <mxCell id="Dr2MwS-Cp9HYmhvvcvBp-31" style="edgeStyle=orthogonalEdgeStyle;rounded=0;orthogonalLoop=1;jettySize=auto;html=1;exitX=0.5;exitY=0;exitDx=0;exitDy=0;entryX=0.75;entryY=0;entryDx=0;entryDy=0;" edge="1" parent="WIyWlLk6GJQsqaUBKTNV-1" source="Dr2MwS-Cp9HYmhvvcvBp-20" target="Dr2MwS-Cp9HYmhvvcvBp-13">
          <mxGeometry relative="1" as="geometry" />
        </mxCell>
        <mxCell id="Dr2MwS-Cp9HYmhvvcvBp-20" value="职类" style="whiteSpace=wrap;html=1;aspect=fixed;" vertex="1" parent="WIyWlLk6GJQsqaUBKTNV-1">
          <mxGeometry x="140" y="750" width="80" height="80" as="geometry" />
        </mxCell>
        <mxCell id="Dr2MwS-Cp9HYmhvvcvBp-25" style="edgeStyle=orthogonalEdgeStyle;rounded=0;orthogonalLoop=1;jettySize=auto;html=1;exitX=0.5;exitY=1;exitDx=0;exitDy=0;entryX=0.5;entryY=0;entryDx=0;entryDy=0;" edge="1" parent="WIyWlLk6GJQsqaUBKTNV-1" source="Dr2MwS-Cp9HYmhvvcvBp-22" target="Dr2MwS-Cp9HYmhvvcvBp-15">
          <mxGeometry relative="1" as="geometry" />
        </mxCell>
        <mxCell id="Dr2MwS-Cp9HYmhvvcvBp-26" style="edgeStyle=orthogonalEdgeStyle;rounded=0;orthogonalLoop=1;jettySize=auto;html=1;exitX=0.75;exitY=1;exitDx=0;exitDy=0;" edge="1" parent="WIyWlLk6GJQsqaUBKTNV-1" source="Dr2MwS-Cp9HYmhvvcvBp-22" target="Dr2MwS-Cp9HYmhvvcvBp-16">
          <mxGeometry relative="1" as="geometry" />
        </mxCell>
        <mxCell id="Dr2MwS-Cp9HYmhvvcvBp-29" style="edgeStyle=orthogonalEdgeStyle;rounded=0;orthogonalLoop=1;jettySize=auto;html=1;exitX=0.25;exitY=1;exitDx=0;exitDy=0;entryX=0.5;entryY=0;entryDx=0;entryDy=0;" edge="1" parent="WIyWlLk6GJQsqaUBKTNV-1" source="Dr2MwS-Cp9HYmhvvcvBp-22" target="Dr2MwS-Cp9HYmhvvcvBp-19">
          <mxGeometry relative="1" as="geometry" />
        </mxCell>
        <mxCell id="Dr2MwS-Cp9HYmhvvcvBp-22" value="职级" style="whiteSpace=wrap;html=1;aspect=fixed;" vertex="1" parent="WIyWlLk6GJQsqaUBKTNV-1">
          <mxGeometry x="270" y="750" width="80" height="80" as="geometry" />
        </mxCell>
        <mxCell id="Dr2MwS-Cp9HYmhvvcvBp-32" style="edgeStyle=orthogonalEdgeStyle;rounded=0;orthogonalLoop=1;jettySize=auto;html=1;exitX=0.5;exitY=1;exitDx=0;exitDy=0;" edge="1" parent="WIyWlLk6GJQsqaUBKTNV-1" source="Dr2MwS-Cp9HYmhvvcvBp-23">
          <mxGeometry relative="1" as="geometry">
            <mxPoint x="330" y="900" as="targetPoint" />
          </mxGeometry>
        </mxCell>
        <mxCell id="Dr2MwS-Cp9HYmhvvcvBp-23" value="职位" style="whiteSpace=wrap;html=1;aspect=fixed;" vertex="1" parent="WIyWlLk6GJQsqaUBKTNV-1">
          <mxGeometry x="390" y="750" width="80" height="80" as="geometry" />
        </mxCell>
        <mxCell id="Dr2MwS-Cp9HYmhvvcvBp-51" style="edgeStyle=orthogonalEdgeStyle;rounded=0;orthogonalLoop=1;jettySize=auto;html=1;exitX=0.5;exitY=0;exitDx=0;exitDy=0;entryX=0.5;entryY=1;entryDx=0;entryDy=0;" edge="1" parent="WIyWlLk6GJQsqaUBKTNV-1" source="Dr2MwS-Cp9HYmhvvcvBp-50" target="Dr2MwS-Cp9HYmhvvcvBp-17">
          <mxGeometry relative="1" as="geometry" />
        </mxCell>
        <mxCell id="Dr2MwS-Cp9HYmhvvcvBp-53" style="edgeStyle=orthogonalEdgeStyle;rounded=0;orthogonalLoop=1;jettySize=auto;html=1;exitX=0.5;exitY=1;exitDx=0;exitDy=0;entryX=0.5;entryY=0;entryDx=0;entryDy=0;" edge="1" parent="WIyWlLk6GJQsqaUBKTNV-1" source="Dr2MwS-Cp9HYmhvvcvBp-50" target="Dr2MwS-Cp9HYmhvvcvBp-52">
          <mxGeometry relative="1" as="geometry" />
        </mxCell>
        <mxCell id="Dr2MwS-Cp9HYmhvvcvBp-50" value="标签" style="whiteSpace=wrap;html=1;aspect=fixed;" vertex="1" parent="WIyWlLk6GJQsqaUBKTNV-1">
          <mxGeometry x="190" y="1030" width="80" height="80" as="geometry" />
        </mxCell>
        <mxCell id="Dr2MwS-Cp9HYmhvvcvBp-52" value="标签数据" style="whiteSpace=wrap;html=1;aspect=fixed;" vertex="1" parent="WIyWlLk6GJQsqaUBKTNV-1">
          <mxGeometry x="190" y="1160" width="80" height="80" as="geometry" />
        </mxCell>
        <mxCell id="Dr2MwS-Cp9HYmhvvcvBp-56" style="edgeStyle=orthogonalEdgeStyle;rounded=0;orthogonalLoop=1;jettySize=auto;html=1;exitX=1;exitY=0.5;exitDx=0;exitDy=0;entryX=0;entryY=0.5;entryDx=0;entryDy=0;" edge="1" parent="WIyWlLk6GJQsqaUBKTNV-1" source="Dr2MwS-Cp9HYmhvvcvBp-55" target="Dr2MwS-Cp9HYmhvvcvBp-2">
          <mxGeometry relative="1" as="geometry" />
        </mxCell>
        <mxCell id="Dr2MwS-Cp9HYmhvvcvBp-60" style="edgeStyle=orthogonalEdgeStyle;rounded=0;orthogonalLoop=1;jettySize=auto;html=1;exitX=0.5;exitY=1;exitDx=0;exitDy=0;entryX=0.5;entryY=0;entryDx=0;entryDy=0;" edge="1" parent="WIyWlLk6GJQsqaUBKTNV-1" source="Dr2MwS-Cp9HYmhvvcvBp-55" target="Dr2MwS-Cp9HYmhvvcvBp-1">
          <mxGeometry relative="1" as="geometry" />
        </mxCell>
        <mxCell id="Dr2MwS-Cp9HYmhvvcvBp-55" value="盘点人员" style="whiteSpace=wrap;html=1;aspect=fixed;" vertex="1" parent="WIyWlLk6GJQsqaUBKTNV-1">
          <mxGeometry x="480" y="190" width="80" height="80" as="geometry" />
        </mxCell>
      </root>
    </mxGraphModel>
  </diagram>
</mxfile>
